<?xml version="1.0" encoding="UTF-8"?>
<svg version="1.1" xmlns="http://www.w3.org/2000/svg" width="168" height="168">
<path d="M0 0 C55.44 0 110.88 0 168 0 C168 55.44 168 110.88 168 168 C112.56 168 57.12 168 0 168 C0 112.56 0 57.12 0 0 Z " fill="#010101" transform="translate(0,0)"/>
<path d="M0 0 C4.29 0 8.58 0 13 0 C17 4 17 4 17.50170898 6.68554688 C17.49985596 7.68650391 17.49800293 8.68746094 17.49609375 9.71875 C17.49673828 10.81574219 17.49738281 11.91273437 17.49804688 13.04296875 C17.47806641 14.18378906 17.45808594 15.32460938 17.4375 16.5 C17.44458984 17.64082031 17.45167969 18.78164062 17.45898438 19.95703125 C17.38822203 29.2214557 17.38822203 29.2214557 14 33 C14.495 33.680625 14.99 34.36125 15.5 35.0625 C17.34127336 38.66832699 17.3641066 40.99482745 17 45 C16 47.4375 16 47.4375 15 49 C15.66 49.99 16.32 50.98 17 52 C17.3359375 54.55859375 17.3359375 54.55859375 17.375 57.4375 C17.40335938 58.38496094 17.43171875 59.33242187 17.4609375 60.30859375 C17 63 17 63 13 67 C8.71 67 4.42 67 0 67 C0 44.89 0 22.78 0 0 Z " fill="#F8F8F8" transform="translate(122,47)"/>
<path d="M0 0 C1.98 0 3.96 0 6 0 C6.33 9.24 6.66 18.48 7 28 C7.99 28 8.98 28 10 28 C10.33 18.76 10.66 9.52 11 0 C12.98 0 14.96 0 17 0 C17.04946866 4.07507572 17.08575189 8.15003497 17.10986328 12.2253418 C17.1199157 13.61144048 17.1335597 14.99751799 17.15087891 16.38354492 C17.17515952 18.3766975 17.18542031 20.37000533 17.1953125 22.36328125 C17.20578613 23.56251221 17.21625977 24.76174316 17.22705078 25.99731445 C17 29 17 29 15 32 C15.33 32.33 15.66 32.66 16 33 C16.26638689 37.21993576 16.27127175 41.44576167 16.29516602 45.6730957 C16.31234844 47.79379377 16.35621292 49.91292012 16.40039062 52.03320312 C16.4105202 53.38280102 16.41903548 54.7324122 16.42578125 56.08203125 C16.44036377 57.31155518 16.45494629 58.5410791 16.4699707 59.80786133 C15.91249741 63.59433577 15.01736465 64.72510856 12 67 C8.31548282 68.17590974 6.71745725 68.33481338 3.1875 66.6875 C1 65 1 65 0 63 C-0.08573394 60.74879258 -0.10712188 58.49500697 -0.09765625 56.2421875 C-0.0962413 55.57913605 -0.09482635 54.91608459 -0.09336853 54.23294067 C-0.08776754 52.11358137 -0.075215 49.99432741 -0.0625 47.875 C-0.05748512 46.43880361 -0.05292219 45.00260556 -0.04882812 43.56640625 C-0.03779782 40.04423655 -0.02053259 36.52212855 0 33 C0.66 33 1.32 33 2 33 C1.34 32.01 0.68 31.02 0 30 C-0.22705078 26.90551758 -0.22705078 26.90551758 -0.1953125 23.14453125 C-0.1924826 22.48289474 -0.18965271 21.82125824 -0.18673706 21.13957214 C-0.17555918 19.03036263 -0.15045981 16.92158075 -0.125 14.8125 C-0.11496707 13.38086552 -0.10584176 11.94922436 -0.09765625 10.51757812 C-0.07562795 7.01158023 -0.04111485 3.50583187 0 0 Z " fill="#F6F6F6" transform="translate(98,47)"/>
<path d="M0 0 C2 1.6875 2 1.6875 3 4 C3.1875 7.25 3.1875 7.25 3 10 C1.02 10 -0.96 10 -3 10 C-3.103125 9.360625 -3.20625 8.72125 -3.3125 8.0625 C-3.539375 7.381875 -3.76625 6.70125 -4 6 C-4.99 5.67 -5.98 5.34 -7 5 C-5.9329084 10.80972092 -3.95800671 13.50722064 0.44140625 17.421875 C3.05021124 20.06337179 3.01320434 22.27729107 3.1875 25.9375 C3.15827158 29.11170617 2.80180892 31.29728662 1 34 C1.66 34.66 2.32 35.32 3 36 C3.1953125 38.1640625 3.1953125 38.1640625 3.125 40.625 C3.10695313 41.44226563 3.08890625 42.25953125 3.0703125 43.1015625 C3.04710938 43.72804687 3.02390625 44.35453125 3 45 C1.33388095 45.042721 -0.33382885 45.04063832 -2 45 C-3 44 -3 44 -3.0625 40.9375 C-3.0315625 39.4834375 -3.0315625 39.4834375 -3 38 C-4.485 38.495 -4.485 38.495 -6 39 C-6 45.93 -6 52.86 -6 60 C-5.34 60.33 -4.68 60.66 -4 61 C-3.67 58.69 -3.34 56.38 -3 54 C-1.02 54 0.96 54 3 54 C3.45717131 61.92430279 3.45717131 61.92430279 1.9375 65.5 C-0.9990519 67.77345954 -3.32854828 67.93669911 -7 68 C-9.94755732 66.65437601 -11.54277272 65.91445456 -13 63 C-13.24417325 58.71322051 -13.18520431 54.41794848 -13.1875 50.125 C-13.19974609 48.92746094 -13.21199219 47.72992188 -13.22460938 46.49609375 C-13.22654297 45.34496094 -13.22847656 44.19382813 -13.23046875 43.0078125 C-13.23457764 41.95223145 -13.23868652 40.89665039 -13.24291992 39.80908203 C-13.00131058 37.01515534 -12.44093238 35.37502206 -11 33 C-11.66 32.34 -12.32 31.68 -13 31 C-13.6875 27.4375 -13.6875 27.4375 -14 24 C-13 23 -13 23 -10.4375 22.9375 C-9.2309375 22.9684375 -9.2309375 22.9684375 -8 23 C-7.67 24.65 -7.34 26.3 -7 28 C-6.01 28 -5.02 28 -4 28 C-4.11134531 23.43484212 -5.33001055 21.3421983 -8.5 18.25 C-9.1290625 17.67765625 -9.758125 17.1053125 -10.40625 16.515625 C-13.13563717 13.92003132 -13.2341929 11.7751532 -13.375 8.125 C-13.32172459 4.44366897 -13.25799059 3.34667486 -11 0.3125 C-7.02452217 -1.42677155 -4.09996301 -1.37552872 0 0 Z " fill="#F5F5F5" transform="translate(66,47)"/>
<path d="M0 0 C5.61 0 11.22 0 17 0 C17 1.65 17 3.3 17 5 C15.02 5 13.04 5 11 5 C11 14.57 11 24.14 11 34 C10.01 34 9.02 34 8 34 C8 42.91 8 51.82 8 61 C10.64 61 13.28 61 16 61 C16 62.98 16 64.96 16 67 C11.38 67 6.76 67 2 67 C2 55.78 2 44.56 2 33 C2.99 33 3.98 33 5 33 C5 23.76 5 14.52 5 5 C3.35 5 1.7 5 0 5 C0 3.35 0 1.7 0 0 Z " fill="#F7F7F7" transform="translate(75,47)"/>
<path d="M0 0 C2.31 0 4.62 0 7 0 C7.66 2.97 8.32 5.94 9 9 C9.66 9 10.32 9 11 9 C11.144375 7.88625 11.28875 6.7725 11.4375 5.625 C12 2 12 2 13 0 C14.98 0 16.96 0 19 0 C18.54388099 1.70892588 18.08499109 3.41711229 17.625 5.125 C17.24214844 6.55199219 17.24214844 6.55199219 16.8515625 8.0078125 C16 11 16 11 14.9375 13.8125 C13.74836112 17.8555722 13.54554586 21.6824142 13.375 25.875 C13.31699219 27.050625 13.31699219 27.050625 13.2578125 28.25 C13.16433378 30.16631367 13.08111505 32.08312319 13 34 C11.02 34 9.04 34 7 34 C6.99742187 33.11441406 6.99484375 32.22882813 6.9921875 31.31640625 C6.69751879 21.87718513 4.69191798 14.17340476 1.27734375 5.38671875 C0 2 0 2 0 0 Z " fill="#F7F7F7" transform="translate(144,47)"/>
<path d="M0 0 C2.475 0.495 2.475 0.495 5 1 C5.05789006 4.45826342 5.09355821 7.91640293 5.125 11.375 C5.14175781 12.35984375 5.15851563 13.3446875 5.17578125 14.359375 C5.18222656 15.30039063 5.18867188 16.24140625 5.1953125 17.2109375 C5.20578613 18.08024902 5.21625977 18.94956055 5.22705078 19.84521484 C5 22 5 22 3 24 C2.01 24 1.02 24 0 24 C0 16.08 0 8.16 0 0 Z " fill="#1D1D1D" transform="translate(128,52)"/>
<path d="M0 0 C1.32 0 2.64 0 4 0 C4 8.58 4 17.16 4 26 C2.68 26 1.36 26 0 26 C0 17.42 0 8.84 0 0 Z " fill="#010101" transform="translate(104,82)"/>
<path d="M0 0 C2.475 0.495 2.475 0.495 5 1 C5 3.64 5 6.28 5 9 C3.35 9 1.7 9 0 9 C0 6.03 0 3.06 0 0 Z " fill="#080808" transform="translate(128,99)"/>
<path d="M0 0 C1.32 0.33 2.64 0.66 4 1 C4 3.31 4 5.62 4 8 C2.68 8 1.36 8 0 8 C0 5.36 0 2.72 0 0 Z " fill="#0C0C0C" transform="translate(128,85)"/>
</svg>
